# xmcd CD database file
#
# Track frame offsets:
#	150
#	18752
#	41189
#	57227
#	80482
#	115698
#	132095
#	151606
#	171305
#	207165
#
# Disc length: 3010 seconds
#
# Revision: 0
# Processed by: cddbd v1.5PL3 Copyright (c) Steve Scherf et al.
# Submitted via: CDex 1.50beta9
#
DISCID=770bc00a
DTITLE=Zito - Blue Room
DYEAR=1900
DGENRE=Blues
TTITLE0=Hollywood
TTITLE1=Pull the Trigger
TTITLE2=It's All Good
TTITLE3=Gravy Jam
TTITLE4=Lovering
TTITLE5=Shoes Blues
TTITLE6=Ways About You
TTITLE7=Soundcheck
TTITLE8=Lightening Bug
TTITLE9=Hollywood (Live)
EXTD=
EXTT0=
EXTT1=
EXTT2=
EXTT3=
EXTT4=
EXTT5=
EXTT6=
EXTT7=
EXTT8=
EXTT9=
PLAYORDER=
